<?xml version="1.0" encoding="iso-8859-1"?>
<!-- Generator: Adobe Illustrator 19.0.0, SVG Export Plug-In . SVG Version: 6.00 Build 0)  -->
<svg version="1.1" id="Capa_1" xmlns="http://www.w3.org/2000/svg" xmlns:xlink="http://www.w3.org/1999/xlink" x="0px" y="0px"
	 viewBox="0 0 511.999 511.999" fill="#C1B524" style="enable-background:new 0 0 511.999 511.999;" xml:space="preserve">
<g>
	<g>
		<path d="M498.361,419.933l-79.172-79.172c-20.228-20.229-47.123-31.369-75.731-31.369c-26.067,0-50.712,9.254-70.187,26.202
			l-56.411-56.411c-12.654-12.654-33.244-12.655-45.899,0c-4.497,4.497-7.388,9.998-8.688,15.787l-24.584-24.585
			c-12.654-12.654-33.245-12.654-45.899,0c-4.497,4.497-7.388,9.998-8.688,15.787l-15.787-15.787
			c-12.654-12.654-33.245-12.653-45.899,0c-12.654,12.654-12.654,33.245,0,45.899l15.328,15.328
			c-5.328,1.157-10.407,3.671-14.696,7.574c-10.288,9.362-13.529,24.712-7.772,37.411c1.613,3.558,3.882,6.803,6.643,9.564
			l18.091,18.09c2.958,2.958,7.754,2.958,10.711,0c2.958-2.958,2.958-7.754,0-10.711l-18.088-18.088
			c-6.911-6.912-6.605-18.492,0.613-25.059c6.72-6.116,17.648-5.63,24.359,1.081l54.639,54.639
			c0.237,8.218,3.513,15.926,9.314,21.813c6.084,6.176,14.209,9.614,22.878,9.678l94.074,0.707c0.019,0,0.038,0,0.058,0
			c4.157,0,7.542-3.354,7.573-7.518c0.031-4.183-3.335-7.6-7.518-7.631l-94.074-0.707c-9.432-0.071-17.248-8.002-17.176-17.436
			c0.072-9.543,7.928-17.22,17.435-17.177l91.838,0.691c2.601,0.807,5.549,0.186,7.608-1.873l35.187-35.187
			c17.367-17.367,40.459-26.932,65.019-26.932c24.56,0,47.651,9.565,65.018,26.932l79.172,79.172
			c3.081,3.081,8.281,2.873,11.114-0.434C501.302,427.246,501.12,422.69,498.361,419.933z M143.921,372.693
			c-12.081-0.074-22.707,6.505-28.368,16.304l-83.424-83.424c-6.748-6.748-6.747-17.728,0-24.476c6.748-6.748,17.727-6.747,24.476,0
			l91.627,91.628L143.921,372.693z M169.305,372.883c-0.35-0.678-66.802-67.311-66.802-67.311c-6.748-6.747-6.748-17.727,0-24.476
			s17.727-6.747,24.476,0l92.161,92.161L169.305,372.883z M237.897,370.592l-56.227-56.227c-6.742-6.748-6.741-17.724,0.005-24.471
			c6.747-6.748,17.727-6.748,24.476,0l56.222,56.222L237.897,370.592z"/>
	</g>
</g>
<g>
	<g>
		<path d="M419.189,499.103l-43.984-43.983c-1.791-1.791-4.356-2.567-6.841-2.071l-87.233,17.447H126.675l-32.969-32.969
			c-2.958-2.959-7.754-2.958-10.711,0c-2.958,2.958-2.958,7.754,0,10.711l35.187,35.188c1.42,1.421,3.347,2.219,5.356,2.219h158.344
			c0.499,0,0.996-0.049,1.486-0.147l83.994-16.799l41.117,41.117c3.081,3.081,8.281,2.873,11.114-0.434
			C422.131,506.416,421.947,501.86,419.189,499.103z"/>
	</g>
</g>
<g>
	<g>
		<path d="M341.583,33.247C317.443,11.807,284.393,0,248.523,0c-73.229,0-132.806,59.577-132.806,132.806
			s59.577,132.806,132.806,132.806h12.119c4.183,0,7.574-3.391,7.574-7.574v-24.238c0-4.183-3.391-7.574-7.574-7.574h-12.119
			c-51.511,0-93.419-41.907-93.419-93.419c0-51.511,41.907-93.418,93.419-93.418c55.003,0,93.419,35.093,93.419,85.339
			c0,31.059-16.541,44.297-33.328,49.729V64.131c0-4.183-3.391-7.575-7.574-7.575h-24.238c-4.183,0-7.574,3.391-7.574,7.575v4.679
			c-6.59-2.751-13.585-4.174-20.704-4.174c-33.135,0-60.091,30.581-60.091,68.17c0,37.59,26.956,68.17,60.091,68.17
			c7.12,0,14.114-1.422,20.704-4.173v0.638c0,10.859,8.835,19.694,19.694,19.694c4.788,0,29.84-0.729,52.855-15.113
			c18.044-11.278,39.554-33.842,39.554-77.296C381.329,88.497,367.213,56.01,341.583,33.247z M333.746,189.176
			c-19.507,12.193-40.763,12.81-44.826,12.81c-2.506,0-4.545-2.039-4.545-4.545v-13.615c0-6.093-7.175-9.72-12.082-6.087
			c-7.145,5.291-15.365,8.087-23.771,8.087c-24.782,0-44.942-23.785-44.942-53.021c0-29.236,20.16-53.021,44.942-53.021
			c8.405,0,16.624,2.798,23.771,8.088c2.299,1.704,5.362,1.965,7.915,0.677c2.555-1.287,4.166-3.903,4.166-6.764V71.705h9.089
			v112.424c0,4.649,4.346,8.282,8.926,7.453c16.447-2.981,54.7-15.464,54.7-66.856c0-28.602-10.883-54.366-30.644-72.546
			c-19.584-18.018-47.258-27.942-77.922-27.942c-59.865,0-108.567,48.703-108.567,108.567c0,59.865,48.703,108.567,108.567,108.567
			h4.545v9.089h-4.545c-64.876,0-117.657-52.781-117.657-117.657S183.647,15.149,248.523,15.149c32.158,0,61.635,10.45,83,29.425
			c22.349,19.848,34.657,48.313,34.657,80.152C366.18,161.24,348.542,179.928,333.746,189.176z"/>
	</g>
</g>
<g>
	<g>
		<path d="M248.523,88.874c-19.769,0-35.852,19.708-35.852,43.932c0,24.224,16.083,43.932,35.852,43.932
			c19.769,0,35.852-19.708,35.852-43.932C284.376,108.582,268.292,88.874,248.523,88.874z M248.523,161.589
			c-11.222,0-20.704-13.181-20.704-28.783c0-15.602,9.481-28.783,20.704-28.783s20.704,13.181,20.704,28.783
			C269.227,148.408,259.746,161.589,248.523,161.589z"/>
	</g>
</g>
<g>
</g>
<g>
</g>
<g>
</g>
<g>
</g>
<g>
</g>
<g>
</g>
<g>
</g>
<g>
</g>
<g>
</g>
<g>
</g>
<g>
</g>
<g>
</g>
<g>
</g>
<g>
</g>
<g>
</g>
</svg>
