<svg id="Line_cutting_cutting_Ex" fill="#C1B524" height="512" viewBox="0 0 512 512" width="512" xmlns="http://www.w3.org/2000/svg" data-name="Line cutting cutting Ex"><g><path d="m376 468a12.013 12.013 0 0 1 -12 12h-216a12.013 12.013 0 0 1 -12-12v-396h-16v396a28.032 28.032 0 0 0 28 28h216a28.032 28.032 0 0 0 28-28v-116h-16z"/><path d="m364 16h-216a28.032 28.032 0 0 0 -28 28v12h16v-12a12.013 12.013 0 0 1 12-12h216a12.013 12.013 0 0 1 12 12v292h16v-292a28.032 28.032 0 0 0 -28-28z"/><path d="m256 208a16.029 16.029 0 0 1 15.092 10.666l15.086-5.332a32.011 32.011 0 0 0 -60.356 0l15.086 5.332a16.029 16.029 0 0 1 15.092-10.666z"/><path d="m256 160a64.334 64.334 0 0 0 -57.837 36.567l14.451 6.866a48.025 48.025 0 0 1 86.772 0l14.451-6.866a64.334 64.334 0 0 0 -57.837-36.567z"/><path d="m166.547 189.09 14.9 5.82a80.036 80.036 0 0 1 149.1 0l14.9-5.82a96.036 96.036 0 0 0 -178.906 0z"/><path d="m248 224h16v16h-16z"/><path d="m160 280v72h16v-32h24v-16h-24v-16h24v-16h-32a8 8 0 0 0 -8 8z"/><path d="m256 302v-22a8 8 0 0 0 -8-8h-32a8 8 0 0 0 -8 8v72h16v-32h4a12.013 12.013 0 0 1 12 12v20h16v-20a27.858 27.858 0 0 0 -5.68-16.888 17.956 17.956 0 0 0 5.68-13.112zm-32 2v-16h16v14a2 2 0 0 1 -2 2z"/><path d="m304 288v-16h-32a8 8 0 0 0 -8 8v64a8 8 0 0 0 8 8h32v-16h-24v-16h24v-16h-24v-16z"/><path d="m352 288v-16h-32a8 8 0 0 0 -8 8v64a8 8 0 0 0 8 8h32v-16h-24v-16h24v-16h-24v-16z"/><path d="m180 428v8a28.032 28.032 0 0 0 28 28h96a28.032 28.032 0 0 0 28-28v-8a28.032 28.032 0 0 0 -28-28h-96a28.032 28.032 0 0 0 -28 28zm16 0a12.013 12.013 0 0 1 12-12h96a12.013 12.013 0 0 1 12 12v8a12.013 12.013 0 0 1 -12 12h-96a12.013 12.013 0 0 1 -12-12z"/><path d="m208 56h96v16h-96z"/></g></svg>