<?xml version="1.0" encoding="iso-8859-1"?>
<!-- Generator: Adobe Illustrator 19.0.0, SVG Export Plug-In . SVG Version: 6.00 Build 0)  -->
<svg version="1.1" id="Capa_1" xmlns="http://www.w3.org/2000/svg" xmlns:xlink="http://www.w3.org/1999/xlink" x="0px" y="0px"
	 viewBox="0 0 512 512" style="enable-background:new 0 0 512 512;" xml:space="preserve" fill="#C1B524">
<g>
	<g>
		<path d="M483.78,52.732H28.22C12.659,52.732,0,65.391,0,80.953v350.096c0,15.56,12.659,28.22,28.22,28.22H483.78
			c15.56,0,28.22-12.659,28.22-28.22V80.953C512,65.391,499.341,52.732,483.78,52.732z M496.99,431.048
			c0,7.284-5.926,13.21-13.21,13.21H28.22c-7.284,0-13.21-5.926-13.21-13.21V80.953c0-7.284,5.926-13.21,13.21-13.21H483.78
			c7.284,0,13.21,5.926,13.21,13.21V431.048z"/>
	</g>
</g>
<g>
	<g>
		<path d="M468.591,89.422H43.409c-4.145,0-7.505,3.36-7.505,7.505v48.946c0,4.145,3.36,7.505,7.505,7.505
			c4.145,0,7.505-3.36,7.505-7.505v-41.441h34.682v261.031H50.914V175.892c0-4.145-3.36-7.505-7.505-7.505
			c-4.145,0-7.505,3.36-7.505,7.505v197.076c0,4.145,3.36,7.505,7.505,7.505h425.182c4.145,0,7.505-3.36,7.505-7.505V96.927
			C476.096,92.782,472.736,89.422,468.591,89.422z M286.487,104.432h84.316v170.442h-78.961c0.924-1.064,1.849-2.144,2.776-3.251
			c23.095-27.583,34.805-54.18,34.805-79.047c0-29.645-17.624-55.236-42.935-66.891V104.432z M255.802,289.586
			c-9.882-8.497-33.375-30.343-47.43-56.981c-0.145-0.333-0.316-0.656-0.51-0.968c-6.358-12.306-10.66-25.604-10.66-39.062
			c0-32.315,26.29-58.605,58.605-58.605c32.315,0,58.605,26.289,58.605,58.605C314.411,235.561,270.343,277.065,255.802,289.586z
			 M243.209,104.432h28.268v16.224c-5.052-1.1-10.292-1.695-15.669-1.695c-4.297,0-8.502,0.391-12.598,1.101V104.432z
			 M143.882,104.433h84.317v19.919c-26.948,10.945-46.007,37.393-46.007,68.223c0,7.25,1.016,14.396,2.797,21.359l-41.106-30.649
			V104.433z M370.803,365.463h-84.316v-32.302h84.316V365.463z M461.087,365.463L461.087,365.463h-31.998v-131.51
			c0-4.145-3.36-7.505-7.505-7.505c-4.145,0-7.505,3.36-7.505,7.505v131.51h-28.268v-39.807c0-4.145-3.36-7.505-7.505-7.505h-99.326
			c-4.145,0-7.505,3.36-7.505,7.505v39.807h-28.268v-50.369c0-2.37-1.12-4.6-3.019-6.017l-99.326-74.06
			c-2.276-1.696-5.315-1.964-7.852-0.691c-2.538,1.274-4.139,3.87-4.139,6.708v38.2c0,4.145,3.36,7.505,7.505,7.505
			c4.145,0,7.505-3.36,7.505-7.505v-23.242l84.317,62.869v46.604h-84.317v-56.209c0-4.145-3.36-7.505-7.505-7.505
			c-4.145,0-7.505,3.36-7.505,7.505v56.209h-28.267V104.432h28.267v82.618c0,2.37,1.119,4.6,3.019,6.017l63.718,47.51
			c19.504,36.407,53.599,63.14,55.605,64.692c1.352,1.046,2.973,1.569,4.593,1.569c1.62,0,3.241-0.523,4.593-1.569
			c0.457-0.354,7.717-6.008,17.391-15.489c0.388,0.062,0.785,0.103,1.191,0.103h99.326c4.145,0,7.505-3.36,7.505-7.505V104.432
			h28.268v99.501c0,4.145,3.36,7.505,7.505,7.505c4.145,0,7.505-3.36,7.505-7.505v-99.502h31.997V365.463z"/>
	</g>
</g>
<g>
	<g>
		<path d="M255.997,385.831c-13.701,0-24.848,11.147-24.848,24.848s11.146,24.848,24.848,24.848
			c13.702,0,24.848-11.147,24.848-24.848C280.845,396.977,269.699,385.831,255.997,385.831z M255.997,420.517
			c-5.425,0-9.839-4.414-9.839-9.839c0-5.425,4.414-9.839,9.839-9.839c5.425,0,9.839,4.414,9.839,9.839
			C265.835,416.104,261.422,420.517,255.997,420.517z"/>
	</g>
</g>
<g>
	<g>
		<path d="M114.374,403.174H77.255c-4.145,0-7.505,3.36-7.505,7.505c0,4.145,3.36,7.505,7.505,7.505h37.119
			c4.145,0,7.505-3.36,7.505-7.505C121.879,406.534,118.518,403.174,114.374,403.174z"/>
	</g>
</g>
<g>
	<g>
		<path d="M434.739,403.174h-37.12c-4.145,0-7.505,3.36-7.505,7.505c0,4.145,3.36,7.505,7.505,7.505h37.12
			c4.145,0,7.505-3.36,7.505-7.505C442.244,406.534,438.884,403.174,434.739,403.174z"/>
	</g>
</g>
<g>
	<g>
		<path d="M255.807,158.703c-18.677,0-33.872,15.195-33.872,33.872s15.195,33.873,33.872,33.873
			c18.677-0.001,33.872-15.196,33.872-33.873S274.485,158.703,255.807,158.703z M255.807,211.439
			c-10.401-0.001-18.862-8.463-18.862-18.863s8.462-18.862,18.862-18.862s18.862,8.462,18.862,18.862
			S266.208,211.439,255.807,211.439z"/>
	</g>
</g>
<g>
</g>
<g>
</g>
<g>
</g>
<g>
</g>
<g>
</g>
<g>
</g>
<g>
</g>
<g>
</g>
<g>
</g>
<g>
</g>
<g>
</g>
<g>
</g>
<g>
</g>
<g>
</g>
<g>
</g>
</svg>
