<?xml version="1.0" encoding="iso-8859-1"?>
<!-- Generator: Adobe Illustrator 19.0.0, SVG Export Plug-In . SVG Version: 6.00 Build 0)  -->
<svg version="1.1" id="Capa_1" xmlns="http://www.w3.org/2000/svg" xmlns:xlink="http://www.w3.org/1999/xlink" x="0px" y="0px"
	 viewBox="0 0 512 512" style="enable-background:new 0 0 512 512;" xml:space="preserve">
<g>
	<g>
		<path d="M489.495,56.465h-62.497h-4.585V32.355c0-13.683-11.133-24.816-24.816-24.816H384.7
			c-13.683,0-24.816,11.133-24.816,24.816v24.109h-72.62V32.355c0-13.683-11.133-24.816-24.816-24.816h-12.897
			c-13.683,0-24.816,11.133-24.816,24.816v24.109h-72.62V32.355c0-13.683-11.133-24.816-24.816-24.816h-12.897
			c-13.683,0-24.816,11.133-24.816,24.816v24.109h-0.653H22.506h-0.001C10.095,56.465,0,66.56,0,78.97v402.985
			c0,12.41,10.095,22.505,22.505,22.505h61.456c4.143,0,7.502-3.359,7.502-7.502s-3.359-7.502-7.502-7.502H22.505
			c-4.137,0-7.502-3.366-7.502-7.502V154.072h481.993v72.822c0,4.143,3.359,7.502,7.502,7.502s7.502-3.359,7.502-7.502V78.97
			C512,66.56,501.905,56.465,489.495,56.465z M374.888,32.355c0-5.41,4.402-9.812,9.812-9.812h12.897
			c5.41,0,9.812,4.402,9.812,9.812v56.612c0,5.411-4.402,9.813-9.812,9.813H384.7c-5.41,0-9.812-4.402-9.812-9.813V32.355z
			 M239.739,32.355c0-5.41,4.402-9.812,9.812-9.812h12.897c5.41,0,9.812,4.402,9.812,9.812v56.612c0,5.411-4.402,9.813-9.812,9.813
			h-12.897c-5.41,0-9.812-4.402-9.812-9.813V32.355z M104.591,32.355c0-5.41,4.402-9.812,9.812-9.812H127.3
			c5.41,0,9.812,4.402,9.812,9.812v56.612c0,5.411-4.402,9.813-9.812,9.813h-12.897c-5.41,0-9.812-4.402-9.812-9.813V32.355z
			 M496.997,139.068h-0.001H15.004V78.97c0-4.137,3.365-7.502,7.502-7.502h65.315h1.766v17.499
			c0,13.684,11.133,24.817,24.816,24.817H127.3c13.683,0,24.816-11.133,24.816-24.817V71.468h72.62v17.499
			c0,13.684,11.133,24.817,24.816,24.817h12.897c13.683,0,24.816-11.133,24.816-24.817V71.468h72.62v17.499
			c0,13.684,11.133,24.817,24.816,24.817h12.897c13.683,0,24.816-11.133,24.816-24.817V71.468h4.674h62.408
			c4.137,0,7.502,3.365,7.502,7.502V139.068z"/>
	</g>
</g>
<g>
	<g>
		<path d="M504.498,272.96c-4.143,0-7.502,3.359-7.502,7.502v201.494c0,4.137-3.366,7.502-7.502,7.502H138.473
			c-4.143,0-7.502,3.359-7.502,7.502s3.359,7.502,7.502,7.502h351.021c12.41,0,22.505-10.095,22.505-22.505V280.462
			C512,276.319,508.641,272.96,504.498,272.96z"/>
	</g>
</g>
<g>
	<g>
		<path d="M207.92,191.614h-27.216c-6.895,0-12.503,5.608-12.503,12.503v27.216c0,6.895,5.608,12.503,12.503,12.503h27.216
			c6.895,0,12.503-5.608,12.503-12.503v-27.216C220.423,197.223,214.815,191.614,207.92,191.614z M205.42,228.833h-22.215v-22.215
			h22.215V228.833z"/>
	</g>
</g>
<g>
	<g>
		<path d="M269.608,191.614h-27.216c-6.895,0-12.503,5.608-12.503,12.503v27.216c0,6.895,5.608,12.503,12.503,12.503h27.216
			c6.895,0,12.503-5.608,12.503-12.503v-27.216C282.111,197.223,276.503,191.614,269.608,191.614z M267.108,228.833h-22.215v-22.215
			h22.215V228.833z"/>
	</g>
</g>
<g>
	<g>
		<path d="M331.296,191.614H304.08c-6.895,0-12.503,5.608-12.503,12.503v27.216c0,6.895,5.609,12.503,12.503,12.503h27.216
			c6.895,0,12.503-5.608,12.503-12.503v-27.216C343.799,197.223,338.191,191.614,331.296,191.614z M328.795,228.833H306.58v-22.215
			h22.215V228.833z"/>
	</g>
</g>
<g>
	<g>
		<path d="M392.985,191.614h-27.216c-6.895,0-12.503,5.608-12.503,12.503v27.216c0,6.895,5.608,12.503,12.503,12.503h27.216
			c6.895,0,12.503-5.608,12.503-12.503v-27.216C405.488,197.223,399.88,191.614,392.985,191.614z M390.484,228.833h-22.215v-22.215
			h22.215V228.833z"/>
	</g>
</g>
<g>
	<g>
		<path d="M454.673,191.614h-27.216c-6.895,0-12.503,5.608-12.503,12.503v27.216c0,6.895,5.608,12.503,12.503,12.503h27.216
			c6.895,0,12.503-5.608,12.503-12.503v-27.216C467.176,197.223,461.568,191.614,454.673,191.614z M452.172,228.833h-22.215v-22.215
			h22.215V228.833z"/>
	</g>
</g>
<g>
	<g>
		<path d="M84.543,259.672H57.327c-6.895,0-12.503,5.608-12.503,12.503v27.216c0,6.895,5.608,12.503,12.503,12.503h27.216
			c6.895,0,12.503-5.608,12.503-12.503v-27.216C97.046,265.28,91.438,259.672,84.543,259.672z M82.043,296.89H59.828v-22.215h22.215
			V296.89z"/>
	</g>
</g>
<g>
	<g>
		<path d="M146.231,259.672h-27.216c-6.895,0-12.503,5.608-12.503,12.503v27.216c0,6.895,5.609,12.503,12.503,12.503h27.216
			c6.895,0,12.503-5.608,12.503-12.503v-27.216C158.734,265.28,153.126,259.672,146.231,259.672z M143.731,296.89h-22.215v-22.215
			h22.215V296.89z"/>
	</g>
</g>
<g>
	<g>
		<path d="M207.92,259.672h-27.216c-6.895,0-12.503,5.608-12.503,12.503v27.216c0,6.895,5.608,12.503,12.503,12.503h27.216
			c6.895,0,12.503-5.608,12.503-12.503v-27.216C220.423,265.28,214.815,259.672,207.92,259.672z M205.42,296.89h-22.215v-22.215
			h22.215V296.89z"/>
	</g>
</g>
<g>
	<g>
		<path d="M269.608,259.672h-27.216c-6.895,0-12.503,5.608-12.503,12.503v27.216c0,6.895,5.608,12.503,12.503,12.503h27.216
			c6.895,0,12.503-5.608,12.503-12.503v-27.216C282.111,265.28,276.503,259.672,269.608,259.672z M267.108,296.89h-22.215v-22.215
			h22.215V296.89z"/>
	</g>
</g>
<g>
	<g>
		<path d="M331.296,259.672H304.08c-6.895,0-12.503,5.608-12.503,12.503v27.216c0,6.895,5.608,12.503,12.503,12.503h27.216
			c6.895,0,12.503-5.608,12.503-12.503v-27.216C343.799,265.28,338.191,259.672,331.296,259.672z M328.795,296.89H306.58v-22.215
			h22.215V296.89z"/>
	</g>
</g>
<g>
	<g>
		<path d="M392.985,259.672h-27.216c-6.895,0-12.503,5.608-12.503,12.503v27.216c0,6.895,5.608,12.503,12.503,12.503h27.216
			c6.895,0,12.503-5.608,12.503-12.503v-27.216C405.488,265.28,399.88,259.672,392.985,259.672z M390.484,296.89h-22.215v-22.215
			h22.215V296.89z"/>
	</g>
</g>
<g>
	<g>
		<path d="M454.673,259.672h-27.216c-6.895,0-12.503,5.608-12.503,12.503v27.216c0,6.895,5.608,12.503,12.503,12.503h27.216
			c6.895,0,12.503-5.608,12.503-12.503v-27.216C467.176,265.28,461.568,259.672,454.673,259.672z M452.172,296.89h-22.215v-22.215
			h22.215V296.89z"/>
	</g>
</g>
<g>
	<g>
		<path d="M84.543,327.728H57.327c-6.895,0-12.503,5.608-12.503,12.503v27.216c0,6.895,5.608,12.503,12.503,12.503h27.216
			c6.895,0,12.503-5.608,12.503-12.503v-27.216C97.046,333.336,91.438,327.728,84.543,327.728z M82.043,364.947H59.828v-22.215
			h22.215V364.947z"/>
	</g>
</g>
<g>
	<g>
		<path d="M146.231,327.728h-27.216c-6.895,0-12.503,5.608-12.503,12.503v27.216c0,6.895,5.608,12.503,12.503,12.503h27.216
			c6.895,0,12.503-5.608,12.503-12.503v-27.216C158.734,333.337,153.126,327.728,146.231,327.728z M143.731,364.947h-22.215v-22.215
			h22.215V364.947z"/>
	</g>
</g>
<g>
	<g>
		<path d="M207.92,327.728h-27.216c-6.895,0-12.503,5.608-12.503,12.503v27.216c0,6.895,5.608,12.503,12.503,12.503h27.216
			c6.895,0,12.503-5.608,12.503-12.503v-27.216C220.423,333.337,214.815,327.728,207.92,327.728z M205.42,364.947h-22.215v-22.215
			h22.215V364.947z"/>
	</g>
</g>
<g>
	<g>
		<path d="M269.608,327.728h-27.216c-6.895,0-12.503,5.608-12.503,12.503v27.216c0,6.895,5.608,12.503,12.503,12.503h27.216
			c6.895,0,12.503-5.608,12.503-12.503v-27.216C282.111,333.337,276.503,327.728,269.608,327.728z M267.108,364.947h-22.215v-22.215
			h22.215V364.947z"/>
	</g>
</g>
<g>
	<g>
		<path d="M331.296,327.728H304.08c-6.895,0-12.503,5.608-12.503,12.503v27.216c0,6.895,5.608,12.503,12.503,12.503h27.216
			c6.895,0,12.503-5.608,12.503-12.503v-27.216C343.799,333.337,338.191,327.728,331.296,327.728z M328.795,364.947H306.58v-22.215
			h22.215V364.947z"/>
	</g>
</g>
<g>
	<g>
		<path d="M392.985,327.728h-27.216c-6.895,0-12.503,5.608-12.503,12.503v27.216c0,6.895,5.608,12.503,12.503,12.503h27.216
			c6.895,0,12.503-5.608,12.503-12.503v-27.216C405.488,333.337,399.88,327.728,392.985,327.728z M390.484,364.947h-22.215v-22.215
			h22.215V364.947z"/>
	</g>
</g>
<g>
	<g>
		<path d="M454.673,327.728h-27.216c-6.895,0-12.503,5.608-12.503,12.503v27.216c0,6.895,5.608,12.503,12.503,12.503h27.216
			c6.895,0,12.503-5.608,12.503-12.503v-27.216C467.176,333.337,461.568,327.728,454.673,327.728z M452.172,364.947h-22.215v-22.215
			h22.215V364.947z"/>
	</g>
</g>
<g>
	<g>
		<path d="M84.543,395.785H57.327c-6.895,0-12.503,5.608-12.503,12.503v27.216c0,6.895,5.608,12.503,12.503,12.503h27.216
			c6.895,0,12.503-5.608,12.503-12.503v-27.216C97.046,401.393,91.438,395.785,84.543,395.785z M82.043,433.004H59.828v-22.215
			h22.215V433.004z"/>
	</g>
</g>
<g>
	<g>
		<path d="M146.231,395.786h-27.216c-6.895,0-12.503,5.608-12.503,12.503v27.216c0,6.895,5.608,12.503,12.503,12.503h27.216
			c6.895,0,12.503-5.609,12.503-12.503v-27.216C158.734,401.394,153.126,395.786,146.231,395.786z M143.731,433.004h-22.215v-22.215
			h22.215V433.004z"/>
	</g>
</g>
<g>
	<g>
		<path d="M207.92,395.786h-27.216c-6.895,0-12.503,5.608-12.503,12.503v27.216c0,6.895,5.608,12.503,12.503,12.503h27.216
			c6.895,0,12.503-5.608,12.503-12.503v-27.216C220.423,401.394,214.815,395.786,207.92,395.786z M205.42,433.003h-22.215v-22.215
			h22.215V433.003z"/>
	</g>
</g>
<g>
	<g>
		<path d="M269.608,395.786h-27.216c-6.895,0-12.503,5.608-12.503,12.503v27.216c0,6.895,5.608,12.503,12.503,12.503h27.216
			c6.895,0,12.503-5.608,12.503-12.503v-27.216C282.111,401.394,276.503,395.786,269.608,395.786z M267.108,433.003h-22.215v-22.215
			h22.215V433.003z"/>
	</g>
</g>
<g>
</g>
<g>
</g>
<g>
</g>
<g>
</g>
<g>
</g>
<g>
</g>
<g>
</g>
<g>
</g>
<g>
</g>
<g>
</g>
<g>
</g>
<g>
</g>
<g>
</g>
<g>
</g>
<g>
</g>
</svg>
