<svg id="Capa_1" fill="#C1B524" enable-background="new 0 0 512 512" height="512" viewBox="0 0 512 512" width="512" xmlns="http://www.w3.org/2000/svg"><g><path d="m464.198 194.975c-4.001-16.752-16.824-30.225-33.622-34.914l-26.858-7.499c-3.992-1.116-8.126 1.218-9.24 5.207s1.217 8.126 5.207 9.24l26.858 7.499c10.095 2.819 18.1 10.258 21.776 19.783h-229.621c-4.142 0-7.5 3.358-7.5 7.5s3.358 7.5 7.5 7.5h240.729c1.27 0 2.303 1.033 2.303 2.303v18.952c0 1.27-1.033 2.303-2.303 2.303h-62.063c-4.142 0-7.5 3.358-7.5 7.5s3.358 7.5 7.5 7.5h38.61v11.451c0 1.27-1.033 2.303-2.303 2.303h-298.121c-1.27 0-2.303-1.033-2.303-2.303v-11.452h228.722c4.142 0 7.5-3.358 7.5-7.5s-3.358-7.5-7.5-7.5h-252.174c-1.27 0-2.303-1.033-2.303-2.303v-18.952c0-1.27 1.033-2.303 2.303-2.303h73.507c4.142 0 7.5-3.358 7.5-7.5s-3.358-7.5-7.5-7.5h-62.746c3.688-9.516 11.712-16.978 21.759-19.783l89.043-24.859c.908.212 1.849.336 2.82.336h100.864c.903 0 1.782-.103 2.631-.287l28.046 7.83c.675.188 1.353.278 2.021.278 3.281 0 6.294-2.17 7.22-5.485 1.114-3.989-1.217-8.126-5.207-9.24l-22.309-6.228v-17.734c0-6.838-5.563-12.401-12.401-12.401h-2.737v-3.901c0-11.953-9.724-21.677-21.677-21.677h-5.083v-3.766c0-42.664-34.709-77.373-77.372-77.373h-185.404c-4.142 0-7.5 3.358-7.5 7.5s3.358 7.5 7.5 7.5h185.403c34.392 0 62.372 27.98 62.372 62.372v3.766h-11.455v-3.766c0-28.075-22.841-50.916-50.917-50.916h-185.403c-4.142 0-7.5 3.358-7.5 7.5s3.358 7.5 7.5 7.5h185.403c19.805 0 35.917 16.112 35.917 35.916v3.766h-5.861c-11.953 0-21.677 9.724-21.677 21.677v3.901h-2.373c-6.838 0-12.401 5.563-12.401 12.401v17.633l-83.496 23.311c-16.758 4.678-29.67 18.24-33.649 35.017-7.027 2.201-12.141 8.772-12.141 16.515v18.952c0 9.541 7.762 17.303 17.303 17.303h8.452v11.452c0 9.541 7.762 17.303 17.303 17.303h5.989v12.349c0 4.142 3.358 7.5 7.5 7.5s7.5-3.358 7.5-7.5v-12.349h52.786v12.349c0 4.142 3.358 7.5 7.5 7.5s7.5-3.358 7.5-7.5v-12.349h52.786v12.349c0 4.142 3.358 7.5 7.5 7.5s7.5-3.358 7.5-7.5v-12.349h52.786v12.349c0 4.142 3.358 7.5 7.5 7.5s7.5-3.358 7.5-7.5v-12.349h52.786v12.349c0 4.142 3.358 7.5 7.5 7.5s7.5-3.358 7.5-7.5v-12.349h5.989c9.541 0 17.303-7.762 17.303-17.303v-11.452h8.453c9.541 0 17.303-7.762 17.303-17.303v-18.952c-.001-7.885-5.308-14.541-12.533-16.618zm-131.754-59.991h-95.667v-13.269h95.667zm-80.892-32.17c0-3.682 2.996-6.677 6.677-6.677h52.399c3.682 0 6.677 2.996 6.677 6.677v3.901h-65.753z"/><path d="m149.039 309.044c-4.142 0-7.5 3.358-7.5 7.5v19.859c0 4.142 3.358 7.5 7.5 7.5s7.5-3.358 7.5-7.5v-19.859c0-4.142-3.358-7.5-7.5-7.5z"/><path d="m149.039 356.496c-4.142 0-7.5 3.358-7.5 7.5v19.859c0 4.142 3.358 7.5 7.5 7.5s7.5-3.358 7.5-7.5v-19.859c0-4.142-3.358-7.5-7.5-7.5z"/><path d="m149.039 403.948c-4.142 0-7.5 3.358-7.5 7.5v19.859c0 4.142 3.358 7.5 7.5 7.5s7.5-3.358 7.5-7.5v-19.859c0-4.142-3.358-7.5-7.5-7.5z"/><path d="m149.039 451.4c-4.142 0-7.5 3.358-7.5 7.5v19.859c0 4.142 3.358 7.5 7.5 7.5s7.5-3.358 7.5-7.5v-19.859c0-4.142-3.358-7.5-7.5-7.5z"/><path d="m182.932 287.333c-4.142 0-7.5 3.358-7.5 7.5v19.859c0 4.142 3.358 7.5 7.5 7.5s7.5-3.358 7.5-7.5v-19.859c0-4.142-3.358-7.5-7.5-7.5z"/><path d="m182.932 334.785c-4.142 0-7.5 3.358-7.5 7.5v19.859c0 4.142 3.358 7.5 7.5 7.5s7.5-3.358 7.5-7.5v-19.859c0-4.142-3.358-7.5-7.5-7.5z"/><path d="m182.932 382.237c-4.142 0-7.5 3.358-7.5 7.5v19.859c0 4.142 3.358 7.5 7.5 7.5s7.5-3.358 7.5-7.5v-19.859c0-4.142-3.358-7.5-7.5-7.5z"/><path d="m182.932 429.689c-4.142 0-7.5 3.358-7.5 7.5v19.859c0 4.142 3.358 7.5 7.5 7.5s7.5-3.358 7.5-7.5v-19.859c0-4.142-3.358-7.5-7.5-7.5z"/><path d="m182.932 477.141c-4.142 0-7.5 3.358-7.5 7.5v19.859c0 4.142 3.358 7.5 7.5 7.5s7.5-3.358 7.5-7.5v-19.859c0-4.142-3.358-7.5-7.5-7.5z"/><path d="m216.825 309.044c-4.142 0-7.5 3.358-7.5 7.5v19.859c0 4.142 3.358 7.5 7.5 7.5s7.5-3.358 7.5-7.5v-19.859c0-4.142-3.358-7.5-7.5-7.5z"/><path d="m216.825 356.496c-4.142 0-7.5 3.358-7.5 7.5v19.859c0 4.142 3.358 7.5 7.5 7.5s7.5-3.358 7.5-7.5v-19.859c0-4.142-3.358-7.5-7.5-7.5z"/><path d="m216.825 403.948c-4.142 0-7.5 3.358-7.5 7.5v19.859c0 4.142 3.358 7.5 7.5 7.5s7.5-3.358 7.5-7.5v-19.859c0-4.142-3.358-7.5-7.5-7.5z"/><path d="m216.825 451.4c-4.142 0-7.5 3.358-7.5 7.5v19.859c0 4.142 3.358 7.5 7.5 7.5s7.5-3.358 7.5-7.5v-19.859c0-4.142-3.358-7.5-7.5-7.5z"/><path d="m250.718 287.333c-4.142 0-7.5 3.358-7.5 7.5v19.859c0 4.142 3.358 7.5 7.5 7.5s7.5-3.358 7.5-7.5v-19.859c0-4.142-3.358-7.5-7.5-7.5z"/><path d="m250.718 334.785c-4.142 0-7.5 3.358-7.5 7.5v19.859c0 4.142 3.358 7.5 7.5 7.5s7.5-3.358 7.5-7.5v-19.859c0-4.142-3.358-7.5-7.5-7.5z"/><path d="m250.718 382.237c-4.142 0-7.5 3.358-7.5 7.5v19.859c0 4.142 3.358 7.5 7.5 7.5s7.5-3.358 7.5-7.5v-19.859c0-4.142-3.358-7.5-7.5-7.5z"/><path d="m250.718 429.689c-4.142 0-7.5 3.358-7.5 7.5v19.859c0 4.142 3.358 7.5 7.5 7.5s7.5-3.358 7.5-7.5v-19.859c0-4.142-3.358-7.5-7.5-7.5z"/><path d="m250.718 477.141c-4.142 0-7.5 3.358-7.5 7.5v19.859c0 4.142 3.358 7.5 7.5 7.5s7.5-3.358 7.5-7.5v-19.859c0-4.142-3.358-7.5-7.5-7.5z"/><path d="m284.611 309.044c-4.142 0-7.5 3.358-7.5 7.5v19.859c0 4.142 3.358 7.5 7.5 7.5s7.5-3.358 7.5-7.5v-19.859c0-4.142-3.358-7.5-7.5-7.5z"/><path d="m284.611 356.496c-4.142 0-7.5 3.358-7.5 7.5v19.859c0 4.142 3.358 7.5 7.5 7.5s7.5-3.358 7.5-7.5v-19.859c0-4.142-3.358-7.5-7.5-7.5z"/><path d="m284.611 403.948c-4.142 0-7.5 3.358-7.5 7.5v19.859c0 4.142 3.358 7.5 7.5 7.5s7.5-3.358 7.5-7.5v-19.859c0-4.142-3.358-7.5-7.5-7.5z"/><path d="m284.611 451.4c-4.142 0-7.5 3.358-7.5 7.5v19.859c0 4.142 3.358 7.5 7.5 7.5s7.5-3.358 7.5-7.5v-19.859c0-4.142-3.358-7.5-7.5-7.5z"/><path d="m318.504 287.333c-4.142 0-7.5 3.358-7.5 7.5v19.859c0 4.142 3.358 7.5 7.5 7.5s7.5-3.358 7.5-7.5v-19.859c0-4.142-3.358-7.5-7.5-7.5z"/><path d="m318.504 334.785c-4.142 0-7.5 3.358-7.5 7.5v19.859c0 4.142 3.358 7.5 7.5 7.5s7.5-3.358 7.5-7.5v-19.859c0-4.142-3.358-7.5-7.5-7.5z"/><path d="m318.504 382.237c-4.142 0-7.5 3.358-7.5 7.5v19.859c0 4.142 3.358 7.5 7.5 7.5s7.5-3.358 7.5-7.5v-19.859c0-4.142-3.358-7.5-7.5-7.5z"/><path d="m318.504 429.689c-4.142 0-7.5 3.358-7.5 7.5v19.859c0 4.142 3.358 7.5 7.5 7.5s7.5-3.358 7.5-7.5v-19.859c0-4.142-3.358-7.5-7.5-7.5z"/><path d="m318.504 477.141c-4.142 0-7.5 3.358-7.5 7.5v19.859c0 4.142 3.358 7.5 7.5 7.5s7.5-3.358 7.5-7.5v-19.859c0-4.142-3.358-7.5-7.5-7.5z"/><path d="m352.397 309.044c-4.142 0-7.5 3.358-7.5 7.5v19.859c0 4.142 3.358 7.5 7.5 7.5s7.5-3.358 7.5-7.5v-19.859c0-4.142-3.358-7.5-7.5-7.5z"/><path d="m352.397 356.496c-4.142 0-7.5 3.358-7.5 7.5v19.859c0 4.142 3.358 7.5 7.5 7.5s7.5-3.358 7.5-7.5v-19.859c0-4.142-3.358-7.5-7.5-7.5z"/><path d="m352.397 403.948c-4.142 0-7.5 3.358-7.5 7.5v19.859c0 4.142 3.358 7.5 7.5 7.5s7.5-3.358 7.5-7.5v-19.859c0-4.142-3.358-7.5-7.5-7.5z"/><path d="m352.397 451.4c-4.142 0-7.5 3.358-7.5 7.5v19.859c0 4.142 3.358 7.5 7.5 7.5s7.5-3.358 7.5-7.5v-19.859c0-4.142-3.358-7.5-7.5-7.5z"/><path d="m386.289 287.333c-4.142 0-7.5 3.358-7.5 7.5v19.859c0 4.142 3.358 7.5 7.5 7.5s7.5-3.358 7.5-7.5v-19.859c0-4.142-3.358-7.5-7.5-7.5z"/><path d="m386.289 334.785c-4.142 0-7.5 3.358-7.5 7.5v19.859c0 4.142 3.358 7.5 7.5 7.5s7.5-3.358 7.5-7.5v-19.859c0-4.142-3.358-7.5-7.5-7.5z"/><path d="m386.289 382.237c-4.142 0-7.5 3.358-7.5 7.5v19.859c0 4.142 3.358 7.5 7.5 7.5s7.5-3.358 7.5-7.5v-19.859c0-4.142-3.358-7.5-7.5-7.5z"/><path d="m386.289 429.689c-4.142 0-7.5 3.358-7.5 7.5v19.859c0 4.142 3.358 7.5 7.5 7.5s7.5-3.358 7.5-7.5v-19.859c0-4.142-3.358-7.5-7.5-7.5z"/><path d="m386.289 477.141c-4.142 0-7.5 3.358-7.5 7.5v19.859c0 4.142 3.358 7.5 7.5 7.5s7.5-3.358 7.5-7.5v-19.859c0-4.142-3.358-7.5-7.5-7.5z"/><path d="m420.182 309.044c-4.142 0-7.5 3.358-7.5 7.5v19.859c0 4.142 3.358 7.5 7.5 7.5s7.5-3.358 7.5-7.5v-19.859c0-4.142-3.358-7.5-7.5-7.5z"/><path d="m420.182 356.496c-4.142 0-7.5 3.358-7.5 7.5v19.859c0 4.142 3.358 7.5 7.5 7.5s7.5-3.358 7.5-7.5v-19.859c0-4.142-3.358-7.5-7.5-7.5z"/><path d="m420.182 403.948c-4.142 0-7.5 3.358-7.5 7.5v19.859c0 4.142 3.358 7.5 7.5 7.5s7.5-3.358 7.5-7.5v-19.859c0-4.142-3.358-7.5-7.5-7.5z"/><path d="m420.182 451.4c-4.142 0-7.5 3.358-7.5 7.5v19.859c0 4.142 3.358 7.5 7.5 7.5s7.5-3.358 7.5-7.5v-19.859c0-4.142-3.358-7.5-7.5-7.5z"/></g></svg>