<?xml version="1.0" encoding="iso-8859-1"?>
<!-- Generator: Adobe Illustrator 19.0.0, SVG Export Plug-In . SVG Version: 6.00 Build 0)  -->
<svg version="1.1" id="Capa_1" fill="#C1B524" xmlns="http://www.w3.org/2000/svg" xmlns:xlink="http://www.w3.org/1999/xlink" x="0px" y="0px"
	 viewBox="0 0 511.999 511.999" style="enable-background:new 0 0 511.999 511.999;" xml:space="preserve">
<g>
	<g>
		<path d="M255.999,0C159.03,0,80.14,78.89,80.14,175.858c0,51.301,28.706,123.106,85.32,213.418
			c41.84,66.746,84.269,119.449,84.693,119.973c2.961,3.666,8.733,3.666,11.694,0c0.424-0.524,42.852-53.227,84.693-119.973
			c56.613-90.312,85.32-162.116,85.32-213.418C431.857,78.89,352.968,0,255.999,0z M255.998,492.376
			C226.45,454.352,95.171,279.544,95.171,175.858c0-88.681,72.147-160.828,160.828-160.828s160.828,72.147,160.828,160.828
			C416.826,279.509,285.547,454.345,255.998,492.376z"/>
	</g>
</g>
<g>
	<g>
		<path d="M357.185,85.32c-2.769-3.09-7.518-3.356-10.613-0.586c-3.092,2.769-3.355,7.52-0.586,10.613
			c19.835,22.154,30.759,50.747,30.759,80.512c0,66.58-54.166,120.746-120.746,120.746s-120.746-54.166-120.746-120.746
			S189.419,55.112,255.999,55.112c21.304,0,42.241,5.62,60.55,16.255c3.588,2.083,8.189,0.865,10.273-2.724
			c2.084-3.589,0.865-8.189-2.725-10.273c-20.597-11.965-44.146-18.289-68.099-18.289c-74.867,0-135.777,60.909-135.777,135.777
			s60.91,135.777,135.777,135.777c74.866,0,135.777-60.909,135.777-135.777C391.775,142.388,379.491,110.235,357.185,85.32z"/>
	</g>
</g>
<g>
	<g>
		<path d="M324.638,145.797l-64.131-48.098c-2.671-2.004-6.347-2.004-9.018,0l-64.131,48.098c-1.893,1.42-3.006,3.646-3.006,6.012
			v96.196c0,4.151,3.364,7.515,7.515,7.515h40.082c4.151,0,7.515-3.365,7.515-7.515v-40.583h33.067v40.583
			c0,4.151,3.365,7.515,7.515,7.515h40.082c4.151,0,7.515-3.365,7.515-7.515v-96.196
			C327.645,149.443,326.531,147.217,324.638,145.797z M312.614,240.49h-25.051v-40.583c0-4.15-3.364-7.515-7.515-7.515H231.95
			c-4.151,0-7.515,3.365-7.515,7.515v40.583h-25.051v-84.923l56.615-42.461l56.615,42.461V240.49z"/>
	</g>
</g>
<g>
	<g>
		<path d="M272.031,160.327h-32.065c-4.151,0-7.515,3.365-7.515,7.515s3.364,7.515,7.515,7.515h32.065
			c4.151,0,7.515-3.365,7.515-7.515S276.183,160.327,272.031,160.327z"/>
	</g>
</g>
<g>
	<g>
		<path d="M264.015,136.278h-16.033c-4.151,0-7.515,3.365-7.515,7.515s3.365,7.515,7.515,7.515h16.033
			c4.151,0,7.515-3.365,7.515-7.515S268.166,136.278,264.015,136.278z"/>
	</g>
</g>
<g>
</g>
<g>
</g>
<g>
</g>
<g>
</g>
<g>
</g>
<g>
</g>
<g>
</g>
<g>
</g>
<g>
</g>
<g>
</g>
<g>
</g>
<g>
</g>
<g>
</g>
<g>
</g>
<g>
</g>
</svg>
