<svg id="Capa_1" enable-background="new 0 0 511.999 511.999" fill="#C1B524" height="512" viewBox="0 0 511.999 511.999" width="512" xmlns="http://www.w3.org/2000/svg"><g><path d="m500.688 307.227v-29.366c0-13.688-9.731-25.145-22.638-27.817v-42.68c0-4.143-3.358-7.5-7.5-7.5s-7.5 3.357-7.5 7.5v42.09h-14.55v-108.455c0-9.649-7.851-17.5-17.5-17.5h-350c-9.649 0-17.5 7.851-17.5 17.5v108.455h-14.552v-122.823c0-9.649 7.851-17.5 17.5-17.5h379.102c9.649 0 17.5 7.851 17.5 17.5v45.338c0 4.143 3.358 7.5 7.5 7.5s7.5-3.357 7.5-7.5v-45.338c0-17.921-14.58-32.5-32.5-32.5h-379.102c-17.92 0-32.5 14.579-32.5 32.5v123.413c-12.907 2.673-22.639 14.129-22.639 27.817v29.366c-6.676 3.204-11.309 10.013-11.309 17.9v72.878c0 10.953 8.911 19.863 19.863 19.863h472.272c10.953 0 19.863-8.91 19.863-19.863v-72.878c.001-7.888-4.632-14.696-11.31-17.9zm-28.406-42.773c7.392 0 13.406 6.015 13.406 13.407v27.402h-37.188v-40.81h23.782zm-391.282-125.955h350c1.378 0 2.5 1.121 2.5 2.5v101.331c-3.753-1.924-8-3.018-12.5-3.018h-2.813v-49.265c0-10.201-8.299-18.5-18.5-18.5h-32.322c-4.142 0-7.5 3.357-7.5 7.5s3.358 7.5 7.5 7.5h32.322c1.93 0 3.5 1.57 3.5 3.5v49.265h-118.374v-49.265c0-1.93 1.57-3.5 3.5-3.5h43.656c4.142 0 7.5-3.357 7.5-7.5s-3.358-7.5-7.5-7.5h-43.656c-10.201 0-18.5 8.299-18.5 18.5v49.265h-27.627v-49.265c0-10.201-8.299-18.5-18.5-18.5h-111.373c-10.201 0-18.5 8.299-18.5 18.5v49.265h-2.813c-4.5 0-8.747 1.093-12.5 3.018v-101.331c0-1.379 1.122-2.5 2.5-2.5zm146.187 100.813h-118.374v-49.265c0-1.93 1.57-3.5 3.5-3.5h111.373c1.93 0 3.5 1.57 3.5 3.5v49.265zm-187.471 25.142h23.784v40.81h-37.19v-27.402c0-7.393 6.014-13.408 13.406-13.408zm-24.716 133.551v-72.878c0-2.682 2.182-4.863 4.863-4.863h43.637v24.365c0 9.649 7.851 17.5 17.5 17.5h31.636c4.142 0 7.5-3.357 7.5-7.5s-3.358-7.5-7.5-7.5h-31.636c-1.378 0-2.5-1.121-2.5-2.5v-77.816c0-6.893 5.607-12.5 12.5-12.5h330c6.893 0 12.5 5.607 12.5 12.5v77.816c0 1.379-1.122 2.5-2.5 2.5h-282.969c-4.142 0-7.5 3.357-7.5 7.5s3.358 7.5 7.5 7.5h20.997v40.739h-149.165c-2.681 0-4.863-2.182-4.863-4.863zm312.972-35.876v40.739h-143.944v-40.739zm169.027 35.876c0 2.682-2.182 4.863-4.863 4.863h-149.164v-40.739h88.028c9.649 0 17.5-7.851 17.5-17.5v-24.365h43.635c2.682 0 4.863 2.182 4.863 4.863v72.878z"/><path d="m93.292 375.499h-18.667c-4.142 0-7.5 3.357-7.5 7.5s3.358 7.5 7.5 7.5h18.667c4.142 0 7.5-3.357 7.5-7.5s-3.357-7.5-7.5-7.5z"/><path d="m246.667 390.499h18.667c4.142 0 7.5-3.357 7.5-7.5s-3.358-7.5-7.5-7.5h-18.667c-4.142 0-7.5 3.357-7.5 7.5s3.357 7.5 7.5 7.5z"/><path d="m437.375 375.499h-18.667c-4.142 0-7.5 3.357-7.5 7.5s3.358 7.5 7.5 7.5h18.667c4.142 0 7.5-3.357 7.5-7.5s-3.358-7.5-7.5-7.5z"/></g></svg>