<svg id="Capa_1" fill="#C1B524" enable-background="new 0 0 512 512" height="512" viewBox="0 0 512 512" width="512" xmlns="http://www.w3.org/2000/svg"><path d="m504.5 156.136c4.142 0 7.5-3.358 7.5-7.5v-95.235c0-9.649-7.851-17.5-17.5-17.5h-477c-9.649 0-17.5 7.851-17.5 17.5v324.394c0 9.649 7.851 17.5 17.5 17.5h14.5v63.303c0 9.649 7.851 17.5 17.5 17.5h31.806c8.917 0 16.296-6.702 17.367-15.333h17.885c4.749 0 9.194-1.869 12.517-5.261 3.312-3.381 5.083-7.845 4.985-12.568-.335-16.276-1.43-32.245-3.04-47.64h249.96c-1.61 15.396-2.705 31.363-3.04 47.64-.097 4.724 1.673 9.188 4.985 12.569 3.323 3.393 7.769 5.261 12.517 5.261h17.885c1.07 8.631 8.45 15.333 17.367 15.333h31.806c9.649 0 17.5-7.851 17.5-17.5v-63.303h14.5c9.649 0 17.5-7.851 17.5-17.5v-193.765c0-4.142-3.358-7.5-7.5-7.5s-7.5 3.358-7.5 7.5v193.765c0 1.378-1.122 2.5-2.5 2.5h-14.5v-304.895c0-4.142-3.358-7.5-7.5-7.5h-433c-4.142 0-7.5 3.358-7.5 7.5v304.894h-14.5c-1.378 0-2.5-1.122-2.5-2.5v-324.394c0-1.378 1.122-2.5 2.5-2.5h477c1.378 0 2.5 1.122 2.5 2.5v95.234c0 4.143 3.358 7.501 7.5 7.501zm-407 67.527c1.378 0 2.5 1.122 2.5 2.5v26.187c0 1.378-1.122 2.5-2.5 2.5h-50.5v-31.187zm20.859 221.344c-.277.283-.88.758-1.802.758h-17.8c-.268-23.727-1.791-48.782-4.561-74.625-.442-4.119-4.14-7.101-8.257-6.658-4.119.441-7.1 4.138-6.658 8.256 3.001 28.003 4.525 55.051 4.53 80.4-.001.042-.006.084-.006.126v5.333c0 1.378-1.122 2.5-2.5 2.5h-31.805c-1.378 0-2.5-1.122-2.5-2.5v-188.747h43.288c8.846 29.379 27.24 98.92 28.774 173.395.018.845-.373 1.425-.703 1.762zm234.299-362.106c3.585 19.814 16.609 81.259 47.788 132.878-2.155 2.909-3.446 6.494-3.446 10.383v26.187c0 6.814 3.923 12.716 9.621 15.605-5.772 19.392-13.146 47.394-18.99 80.342h-124.131v-265.395zm112.342 171.949h-50.5c-1.378 0-2.5-1.122-2.5-2.5v-26.187c0-1.378 1.122-2.5 2.5-2.5h50.5zm0 203.749c0 1.378-1.122 2.5-2.5 2.5h-31.806c-1.378 0-2.5-1.122-2.5-2.5v-5.333c0-.043-.006-.084-.006-.126.005-25.349 1.528-52.397 4.53-80.4.442-4.119-2.539-7.815-6.658-8.256-4.105-.442-7.815 2.539-8.257 6.658-2.77 25.843-4.292 50.898-4.561 74.625h-17.8c-.922 0-1.524-.475-1.802-.758-.331-.337-.721-.917-.704-1.763 1.534-74.474 19.928-144.016 28.774-173.395h43.29zm0-375.698v125.599.163h-50.5c-.268 0-.528.028-.792.04-28.551-46.957-41.626-104.366-45.761-125.801h97.053zm-320.938 0c-2.467 12.859-8.138 38.663-18.446 67.328-1.401 3.898.622 8.194 4.52 9.596 3.897 1.4 8.194-.622 9.596-4.52 11.542-32.098 17.384-60.218 19.603-72.404h89.165v265.395h-38.469c-4.142 0-7.5 3.358-7.5 7.5s3.358 7.5 7.5 7.5h45.921c.016 0 .032.002.048.002s.032-.002.048-.002h129.095c-.861 5.559-1.672 11.226-2.415 17h-253.456c-.743-5.773-1.554-11.44-2.415-17h47.779c4.142 0 7.5-3.358 7.5-7.5s-3.358-7.5-7.5-7.5h-50.268c-5.844-32.948-13.218-60.949-18.99-80.342 5.698-2.889 9.621-8.791 9.621-15.605v-26.187c0-3.889-1.291-7.474-3.446-10.383 5.073-8.407 9.932-17.53 14.473-27.187 1.763-3.749.153-8.216-3.596-9.979-3.749-1.761-8.216-.153-9.979 3.596-4.445 9.452-9.198 18.344-14.151 26.493-.268-.012-.531-.041-.802-.041h-50.498v-125.76z"/></svg>