<svg id="Capa_1" fill="#C1B524" enable-background="new 0 0 512 512" height="512" viewBox="0 0 512 512" width="512" xmlns="http://www.w3.org/2000/svg"><g><path d="m494.619 344.759h-20.973v-232.665c0-11.859-9.648-21.508-21.508-21.508s-21.508 9.648-21.508 21.508v202.45h-222.6c-4.142 0-7.5 3.357-7.5 7.5s3.358 7.5 7.5 7.5h230.22c9.454 0 17.404 6.474 19.707 15.215h-12.289c-4.393 0-8.587 1.644-11.807 4.626l-23.96 22.179c-.441.409-1.017.634-1.618.634h-304.567c-.601 0-1.176-.225-1.617-.634l-23.959-22.178c-3.222-2.983-7.415-4.627-11.808-4.627h-12.289c2.303-8.741 10.253-15.215 19.707-15.215h98.886c4.142 0 7.5-3.357 7.5-7.5s-3.358-7.5-7.5-7.5h-91.271v-100.513c0-4.143-3.358-7.5-7.5-7.5s-7.5 3.357-7.5 7.5v41.09h-13.015v-143.027c0-3.589 2.919-6.508 6.508-6.508s6.507 2.919 6.507 6.508v66.542c0 4.143 3.358 7.5 7.5 7.5s7.5-3.357 7.5-7.5v-66.542c0-11.859-9.648-21.508-21.508-21.508s-21.507 9.648-21.507 21.508v232.665h-20.969c-9.584 0-17.381 7.797-17.381 17.38v22.133c0 20.48 16.662 37.143 37.142 37.143h366.161c4.143 0 7.5-3.357 7.5-7.5s-3.357-7.5-7.5-7.5h-366.161c-12.209-.001-22.142-9.935-22.142-22.144v-22.133c0-1.313 1.068-2.38 2.381-2.38h48.951c.602 0 1.175.225 1.617.634l23.96 22.179c3.223 2.983 7.416 4.626 11.807 4.626h304.567c4.392 0 8.585-1.643 11.808-4.626l23.962-22.181c.439-.407 1.014-.632 1.615-.632h48.951c1.313 0 2.381 1.067 2.381 2.38v22.133c0 12.209-9.933 22.143-22.143 22.143h-36.16c-4.143 0-7.5 3.357-7.5 7.5s3.357 7.5 7.5 7.5h36.16c20.48 0 37.143-16.662 37.143-37.143v-22.133c0-9.582-7.797-17.379-17.381-17.379zm-428.254-74.638v45.203c-4.762 1.015-9.169 2.993-13.015 5.716v-50.919zm385.774-164.535c3.589 0 6.508 2.919 6.508 6.508v143.027h-13.016v-143.027c0-3.589 2.919-6.508 6.508-6.508zm-6.508 209.738v-45.203h13.016v50.917c-3.847-2.723-8.254-4.7-13.016-5.714z"/><path d="m60.767 380.766c0 4.143 3.358 7.5 7.5 7.5s7.5-3.357 7.5-7.5v-.087c0-4.143-3.358-7.456-7.5-7.456s-7.5 3.4-7.5 7.543z"/><path d="m35.386 380.766c0 4.143 3.358 7.5 7.5 7.5s7.5-3.357 7.5-7.5v-.087c0-4.143-3.358-7.456-7.5-7.456s-7.5 3.4-7.5 7.543z"/><path d="m256 264.462c-6.458 0-12.649 1.997-17.902 5.774-3.363 2.418-4.128 7.104-1.71 10.468 1.465 2.038 3.763 3.122 6.095 3.122 1.516-.001 3.047-.459 4.373-1.412 2.686-1.932 5.848-2.952 9.144-2.952 3.297 0 6.458 1.021 9.144 2.952 3.359 2.417 8.047 1.653 10.468-1.71 2.418-3.362 1.653-8.049-1.71-10.468-5.253-3.777-11.443-5.774-17.902-5.774z"/><path d="m291.235 265.086c2.331 0 4.63-1.085 6.095-3.122 2.419-3.363 1.652-8.05-1.71-10.468-11.628-8.361-25.328-12.78-39.62-12.78s-27.992 4.419-39.62 12.78c-3.363 2.418-4.129 7.104-1.711 10.468 2.418 3.361 7.104 4.129 10.468 1.71 9.061-6.515 19.733-9.958 30.863-9.958s21.803 3.443 30.863 9.958c1.324.953 2.856 1.412 4.372 1.412z"/><path d="m207.178 243.814c14.332-10.305 31.214-15.752 48.822-15.752 17.607 0 34.49 5.447 48.821 15.752 1.325.953 2.856 1.412 4.373 1.412 2.331 0 4.63-1.085 6.095-3.122 2.419-3.363 1.652-8.05-1.71-10.468-16.899-12.151-36.81-18.574-57.579-18.574s-40.68 6.423-57.579 18.574c-3.363 2.418-4.129 7.104-1.711 10.467 2.418 3.364 7.104 4.131 10.468 1.711z"/></g></svg>